<svg version="1.1" id="Layer_1" xmlns="http://www.w3.org/2000/svg" xmlns:xlink="http://www.w3.org/1999/xlink" x="0px" y="0px"
	 width="100%" viewBox="0 0 500 500" enable-background="new 0 0 500 500" xml:space="preserve">
<path fill="#FFFFFF" opacity="1.000000" stroke="none" 
	d="
M276.000000,501.000000 
	C184.000015,501.000000 92.500046,501.000000 1.000049,501.000000 
	C1.000033,334.333405 1.000033,167.666794 1.000016,1.000139 
	C167.666565,1.000092 334.333130,1.000092 500.999756,1.000046 
	C500.999847,167.666519 500.999847,334.333038 500.999939,500.999786 
	C426.166656,501.000000 351.333344,501.000000 276.000000,501.000000 
M307.200104,103.176689 
	C301.633972,101.554039 296.080933,99.884682 290.499359,98.316971 
	C268.421936,92.116028 245.892731,90.841194 223.549377,95.257896 
	C172.637878,105.321793 134.054489,133.062943 110.053879,179.346405 
	C96.032326,206.385941 91.049438,235.537033 93.836258,266.110260 
	C95.892647,288.670227 102.678436,309.482513 113.568581,329.166870 
	C122.442619,345.207062 133.943161,359.232727 147.795929,371.004913 
	C167.934402,388.118744 190.992401,399.603729 217.110458,405.179718 
	C234.863556,408.969849 252.604858,410.202026 270.434540,407.782349 
	C293.162750,404.697937 314.509918,397.440460 334.127594,385.075226 
	C351.925232,373.857178 367.125549,360.049744 379.344330,343.009308 
	C399.863403,314.393250 409.086212,282.150421 408.857208,247.184937 
	C408.801300,238.647186 407.406036,230.050232 405.931213,221.601883 
	C400.488068,190.421982 385.896851,163.810089 364.356018,140.935394 
	C348.497833,124.095215 329.251068,112.167664 307.200104,103.176689 
z"/>
<path fill="#F9F5F4" opacity="1.000000" stroke="none" 
	d="
M307.557861,103.329926 
	C329.251068,112.167664 348.497833,124.095215 364.356018,140.935394 
	C385.896851,163.810089 400.488068,190.421982 405.931213,221.601883 
	C407.406036,230.050232 408.801300,238.647186 408.857208,247.184937 
	C409.086212,282.150421 399.863403,314.393250 379.344330,343.009308 
	C367.125549,360.049744 351.925232,373.857178 334.127594,385.075226 
	C314.509918,397.440460 293.162750,404.697937 270.434540,407.782349 
	C252.604858,410.202026 234.863556,408.969849 217.110458,405.179718 
	C190.992401,399.603729 167.934402,388.118744 147.795929,371.004913 
	C133.943161,359.232727 122.442619,345.207062 113.568581,329.166870 
	C102.678436,309.482513 95.892647,288.670227 93.836258,266.110260 
	C91.049438,235.537033 96.032326,206.385941 110.053879,179.346405 
	C134.054489,133.062943 172.637878,105.321793 223.549377,95.257896 
	C245.892731,90.841194 268.421936,92.116028 290.499359,98.316971 
	C296.080933,99.884682 301.633972,101.554039 307.557861,103.329926 
M112.834961,234.785400 
	C112.477814,239.163376 112.120674,243.541367 111.422432,248.570724 
	C111.555260,251.050522 111.688080,253.530334 111.708206,256.917816 
	C112.093742,260.947876 112.479279,264.977966 112.802742,269.886627 
	C113.603111,274.253998 114.403488,278.621399 115.179985,283.744507 
	C116.472260,287.828674 117.764534,291.912842 119.065430,296.732330 
	C120.460014,300.150909 121.854599,303.569519 123.353706,307.664795 
	C124.960602,310.773926 126.567497,313.883057 128.292007,317.635040 
	C129.416412,319.464386 130.540802,321.293732 131.862747,323.777863 
	C133.102371,325.584930 134.342010,327.391998 135.837494,329.807587 
	C136.621948,330.868530 137.406418,331.929474 138.391632,333.611969 
	C140.848312,336.532684 143.305008,339.453400 145.994873,342.965485 
	C147.633942,344.691467 149.273010,346.417480 151.213821,348.732513 
	C154.065109,351.300842 156.916397,353.869171 160.166397,356.953369 
	C165.752518,360.983459 171.338623,365.013550 177.334717,369.587402 
	C194.985031,380.477539 213.955566,387.152557 234.746384,389.206329 
	C255.033493,391.210419 274.842407,390.385773 294.901123,383.255432 
	C301.949432,380.178314 308.997711,377.101166 316.880371,373.939484 
	C317.670258,374.013702 318.460144,374.087921 318.971588,374.809845 
	C316.800415,376.033051 314.673218,377.343292 312.451538,378.466644 
	C268.141174,400.870636 223.759384,401.874359 179.539215,378.407013 
	C165.603653,371.011475 153.725723,360.814758 143.071915,349.165009 
	C142.142624,348.148834 139.859848,348.370422 138.205750,348.017120 
	C138.342041,349.622650 138.277145,351.282898 138.693222,352.812317 
	C138.927292,353.672791 139.938263,354.333435 140.627899,355.056763 
	C180.113617,396.473450 228.136047,410.115540 283.096375,396.231018 
	C367.692413,374.859711 417.949066,282.834930 391.655273,199.394165 
	C369.963287,130.556747 301.811401,90.126015 232.466141,102.382614 
	C146.461380,117.583771 88.339546,201.188248 107.128120,290.066467 
	C108.697990,297.492645 111.530388,304.670929 114.105186,311.846344 
	C114.516533,312.992676 116.670479,313.513641 118.018822,314.323700 
	C118.506721,312.855865 119.154190,311.415344 119.412384,309.908142 
	C119.533875,309.198944 118.910866,308.360016 118.618576,307.582367 
	C110.074135,284.850067 107.476311,261.448639 110.845810,237.407516 
	C111.243645,234.568985 112.179802,231.805893 112.989731,229.832184 
	C113.024940,231.218292 113.060143,232.604401 112.834961,234.785400 
z"/>
<path fill="#140921" opacity="1.000000" stroke="none" 
	d="
M112.866425,229.007828 
	C112.179802,231.805893 111.243645,234.568985 110.845810,237.407516 
	C107.476311,261.448639 110.074135,284.850067 118.618576,307.582367 
	C118.910866,308.360016 119.533875,309.198944 119.412384,309.908142 
	C119.154190,311.415344 118.506721,312.855865 118.018822,314.323700 
	C116.670479,313.513641 114.516533,312.992676 114.105186,311.846344 
	C111.530388,304.670929 108.697990,297.492645 107.128120,290.066467 
	C88.339546,201.188248 146.461380,117.583771 232.466141,102.382614 
	C301.811401,90.126015 369.963287,130.556747 391.655273,199.394165 
	C417.949066,282.834930 367.692413,374.859711 283.096375,396.231018 
	C228.136047,410.115540 180.113617,396.473450 140.627899,355.056763 
	C139.938263,354.333435 138.927292,353.672791 138.693222,352.812317 
	C138.277145,351.282898 138.342041,349.622650 138.205750,348.017090 
	C139.859848,348.370422 142.142624,348.148834 143.071915,349.165009 
	C153.725723,360.814758 165.603653,371.011475 179.539215,378.407013 
	C223.759384,401.874359 268.141174,400.870636 312.451538,378.466644 
	C314.673218,377.343292 316.800415,376.033051 319.081787,374.444824 
	C319.191956,374.079834 319.099335,374.120148 319.443359,374.167847 
	C321.218018,373.172333 322.648682,372.129089 324.057037,371.048706 
	C324.034729,371.011566 324.089325,371.088593 324.414307,371.105469 
	C325.517334,370.439056 326.295380,369.755737 327.044098,369.037842 
	C327.014771,369.003265 327.040771,369.090118 327.330292,369.057434 
	C327.801910,368.684509 327.984009,368.344299 328.454651,367.914734 
	C329.506287,366.916229 330.269348,366.007080 331.383362,365.040924 
	C335.245941,362.355011 338.757599,359.726105 342.552979,356.997131 
	C343.586060,355.977173 344.335388,355.057281 345.417236,354.056458 
	C347.197266,352.328278 348.644806,350.681091 350.392792,348.905457 
	C352.224945,347.217773 353.756592,345.658478 355.576447,343.936615 
	C358.113342,340.894897 360.362030,338.015747 362.841797,334.930756 
	C365.029083,331.815399 366.985321,328.905914 369.192719,325.744812 
	C371.933014,320.660522 374.422150,315.827789 377.090881,310.683960 
	C379.258026,305.592834 381.245605,300.812866 383.521942,295.816071 
	C384.865967,292.064911 385.921265,288.530548 387.246094,284.707886 
	C388.046356,281.605774 388.577087,278.792053 389.127808,275.571899 
	C389.435364,272.831177 389.722931,270.496887 390.371887,267.967712 
	C393.593994,252.239151 393.840912,236.703278 390.946838,221.133423 
	C383.985687,183.682983 366.197784,152.720032 334.574432,131.020828 
	C294.880219,103.783638 251.827438,99.195137 206.798584,115.744781 
	C197.046921,119.328850 188.198715,125.371086 178.664001,130.431274 
	C176.202820,132.279755 174.012009,133.978027 171.530518,135.823334 
	C169.781296,137.211624 168.322754,138.452881 166.546692,139.790466 
	C164.754913,141.144684 163.280655,142.402557 161.467499,143.696991 
	C159.740311,145.129150 158.352020,146.524765 156.668335,148.067047 
	C154.568207,150.116211 152.763489,152.018723 150.667786,154.065247 
	C148.899338,155.748276 147.421890,157.287323 145.650604,158.989960 
	C143.886230,161.060272 142.415680,162.966995 140.646301,165.038330 
	C138.468124,167.937119 136.588760,170.671326 134.450363,173.651169 
	C131.762543,178.180267 129.333725,182.463745 126.619499,186.965729 
	C123.460838,194.067490 120.587593,200.950745 117.464493,208.109512 
	C115.765236,215.259308 114.315834,222.133560 112.866425,229.007828 
z"/>
<path fill="#359ECD" opacity="1.000000" stroke="none" 
	d="
M111.820908,256.010132 
	C111.688080,253.530334 111.555260,251.050522 112.038391,248.270538 
	C113.775665,248.148056 114.893311,248.448883 116.018890,248.482285 
	C121.039993,248.631180 126.063362,248.703690 131.389465,248.964722 
	C133.345627,250.430664 134.865677,251.966858 136.672516,253.002914 
	C147.688675,259.319641 158.210434,257.513489 168.818207,250.896378 
	C173.623322,251.645020 177.961288,252.506805 182.340790,252.876236 
	C183.515488,252.975327 184.816772,251.573868 186.382874,250.936844 
	C187.139587,251.097595 187.573380,251.182755 188.024719,251.654022 
	C188.493179,252.655884 188.867569,253.725616 189.406921,253.816513 
	C194.293304,254.640015 199.194550,255.416656 204.118027,255.970673 
	C216.926727,257.411957 229.758545,258.649567 242.562988,260.125977 
	C255.851593,261.658203 269.133453,263.267609 282.388336,265.064178 
	C287.733795,265.788696 292.999725,267.099792 298.107727,268.426727 
	C296.518494,270.028015 295.123444,271.346497 293.728363,272.664978 
	C293.775513,272.188110 293.822662,271.711273 293.869843,271.234406 
	C292.124786,270.584351 289.725647,268.920441 288.789612,269.524353 
	C287.420929,270.407349 286.570312,272.887909 286.468414,274.740906 
	C286.337952,277.113678 287.170715,279.539398 287.130676,281.947723 
	C283.783264,281.635040 280.893616,281.316986 277.749695,280.784454 
	C269.257233,269.482605 259.985352,268.753082 249.732498,278.031006 
	C249.199951,276.718079 248.746918,275.601166 248.344833,274.609863 
	C246.326126,274.760864 244.673141,274.884491 242.574005,275.002197 
	C234.250458,274.391357 226.373062,273.786407 218.276428,272.935181 
	C216.839417,270.552948 215.873459,268.206390 214.321136,266.350220 
	C213.159393,264.961121 211.305679,263.477997 209.646286,263.332245 
	C207.019974,263.101624 203.976227,263.435699 202.868423,267.069885 
	C192.263840,266.016022 182.087616,265.188110 171.966217,263.922211 
	C151.901779,261.412659 131.867599,258.661469 111.820908,256.010132 
z"/>
<path fill="#56D4E2" opacity="1.000000" stroke="none" 
	d="
M316.046021,374.024048 
	C308.997711,377.101166 301.949432,380.178314 294.357971,382.950500 
	C292.850311,382.090393 291.936157,381.182312 290.913208,381.036224 
	C283.234283,379.939850 275.546143,378.884338 267.837555,378.024872 
	C254.536667,376.541840 241.198227,375.380615 227.913910,373.768127 
	C213.660339,372.038025 199.464172,369.834991 185.210709,368.103851 
	C182.526382,367.777802 179.690613,368.698334 176.924744,369.043671 
	C171.338623,365.013550 165.752518,360.983459 160.223999,356.333374 
	C164.014572,355.808868 167.775146,355.648834 171.475266,356.048431 
	C181.985489,357.183472 192.472183,358.537933 202.965988,359.823395 
	C211.498795,360.868683 220.020386,362.010712 228.561539,362.981476 
	C241.374725,364.437775 254.206604,365.729828 267.019379,367.189667 
	C277.523560,368.386414 288.024841,369.627167 298.501465,371.040710 
	C304.376862,371.833374 310.199585,373.016724 316.046021,374.024048 
z"/>
<path fill="#4BC1DA" opacity="1.000000" stroke="none" 
	d="
M355.288269,344.099182 
	C353.756592,345.658478 352.224945,347.217773 349.960693,348.894196 
	C346.940155,348.674500 344.659241,348.276459 342.362976,348.011505 
	C332.837280,346.912323 323.300140,345.909668 313.779938,344.765808 
	C300.987091,343.228729 288.213348,341.531158 275.417664,340.019104 
	C262.940308,338.544708 250.438950,337.273529 237.960266,335.809662 
	C224.834839,334.269989 211.722458,332.618530 198.606918,330.995300 
	C188.933823,329.798096 179.272629,328.500977 169.592041,327.368866 
	C156.957047,325.891296 144.308136,324.532806 131.665207,323.123077 
	C130.540802,321.293732 129.416412,319.464386 128.673843,317.315857 
	C134.801163,317.415314 140.561798,317.687653 146.289154,318.281189 
	C160.826447,319.787750 175.348816,321.438171 190.307831,323.097534 
	C193.160675,322.775635 195.582855,322.387207 198.426422,322.009033 
	C215.496353,323.677643 232.144928,325.335968 248.882812,327.401337 
	C249.767731,332.715881 250.661530,333.043030 257.083557,331.016205 
	C263.357056,332.233521 269.357269,333.223419 275.387329,333.973724 
	C283.398621,334.970520 291.439087,335.730652 299.456116,336.683990 
	C308.295959,337.735229 317.130463,338.837494 325.954437,340.014069 
	C335.739990,341.318817 345.510956,342.732758 355.288269,344.099182 
z"/>
<path fill="#50CADE" opacity="1.000000" stroke="none" 
	d="
M342.269257,357.097198 
	C338.757599,359.726105 335.245941,362.355011 331.314667,364.660797 
	C329.031769,363.558472 327.227417,362.329620 325.295197,362.076263 
	C315.799072,360.831024 306.263550,359.890656 296.752258,358.756042 
	C283.806732,357.211761 270.874603,355.555725 257.929199,354.010590 
	C248.091461,352.836456 238.235214,351.816895 228.399506,350.626801 
	C216.110886,349.139923 203.837479,347.527863 191.552734,346.008392 
	C178.451492,344.387848 165.353806,342.728149 152.230957,341.302948 
	C150.138000,341.075684 147.921219,341.988434 145.761688,342.374115 
	C143.305008,339.453400 140.848312,336.532684 138.720795,333.304108 
	C148.079880,333.997498 157.110535,334.992310 166.139526,336.001984 
	C174.342819,336.919250 182.551224,337.795868 190.744629,338.794891 
	C198.945435,339.794830 207.115601,341.058289 215.325745,341.966309 
	C228.794266,343.455933 242.309174,344.546997 255.758286,346.185486 
	C269.686951,347.882416 283.541595,350.180908 297.463409,351.941223 
	C312.377563,353.826996 327.332245,355.392120 342.269257,357.097198 
z"/>
<path fill="#5BDBE4" opacity="1.000000" stroke="none" 
	d="
M177.129730,369.315552 
	C179.690613,368.698334 182.526382,367.777802 185.210709,368.103851 
	C199.464172,369.834991 213.660339,372.038025 227.913910,373.768127 
	C241.198227,375.380615 254.536667,376.541840 267.837555,378.024872 
	C275.546143,378.884338 283.234283,379.939850 290.913208,381.036224 
	C291.936157,381.182312 292.850311,382.090393 293.984467,383.023346 
	C274.842407,390.385773 255.033493,391.210419 234.746384,389.206329 
	C213.955566,387.152557 194.985031,380.477539 177.129730,369.315552 
z"/>
<path fill="#53D0E0" opacity="1.000000" stroke="none" 
	d="
M316.463196,373.981750 
	C310.199585,373.016724 304.376862,371.833374 298.501465,371.040710 
	C288.024841,369.627167 277.523560,368.386414 267.019379,367.189667 
	C254.206604,365.729828 241.374725,364.437775 228.561539,362.981476 
	C220.020386,362.010712 211.498795,360.868683 202.965988,359.823395 
	C192.472183,358.537933 181.985489,357.183472 171.475266,356.048431 
	C167.775146,355.648834 164.014572,355.808868 160.024643,356.075439 
	C156.916397,353.869171 154.065109,351.300842 151.345581,348.119141 
	C155.412354,347.539032 159.380966,347.256073 163.275528,347.669922 
	C171.972855,348.594177 180.619720,349.985901 189.311874,350.968262 
	C202.437775,352.451721 215.606445,353.570984 228.716965,355.172333 
	C242.964233,356.912567 257.150940,359.144379 271.391083,360.948151 
	C288.253418,363.084045 305.147949,364.965149 322.015503,367.061615 
	C323.067413,367.192383 324.005890,368.236053 324.756836,369.102234 
	C324.374115,369.929199 324.231720,370.508881 324.089325,371.088593 
	C324.089325,371.088593 324.034729,371.011566 323.705017,370.870850 
	C321.950012,371.860107 320.524658,372.990112 319.099304,374.120117 
	C319.099335,374.120148 319.191956,374.079834 319.221008,374.120972 
	C318.460144,374.087921 317.670258,374.013702 316.463196,373.981750 
z"/>
<path fill="#3CABD2" opacity="1.000000" stroke="none" 
	d="
M115.203857,282.988770 
	C114.403488,278.621399 113.603111,274.253998 113.286690,269.444733 
	C122.130867,270.000793 130.485001,271.053772 138.852905,271.982513 
	C148.870544,273.094330 158.909836,274.014740 168.921555,275.174988 
	C179.416458,276.391266 189.889816,277.793488 200.325943,279.515350 
	C199.216446,283.946625 198.153580,287.976959 196.664856,291.996460 
	C191.012268,291.324005 185.792847,290.596405 180.557236,290.014679 
	C170.239334,288.868195 159.911667,287.809601 149.589432,286.701752 
	C138.126770,285.471558 126.665649,284.227051 115.203857,282.988770 
z"/>
<path fill="#38A3CF" opacity="1.000000" stroke="none" 
	d="
M200.372589,279.114441 
	C189.889816,277.793488 179.416458,276.391266 168.921555,275.174988 
	C158.909836,274.014740 148.870544,273.094330 138.852905,271.982513 
	C130.485001,271.053772 122.130867,270.000793 113.317726,269.005432 
	C112.479279,264.977966 112.093742,260.947876 111.764557,256.463989 
	C131.867599,258.661469 151.901779,261.412659 171.966217,263.922211 
	C182.087616,265.188110 192.263840,266.016022 202.833069,267.471863 
	C202.291458,271.639282 201.332016,275.376862 200.372589,279.114441 
z"/>
<path fill="#41B2D4" opacity="1.000000" stroke="none" 
	d="
M115.191925,283.366638 
	C126.665649,284.227051 138.126770,285.471558 149.589432,286.701752 
	C159.911667,287.809601 170.239334,288.868195 180.557236,290.014679 
	C185.792847,290.596405 191.012268,291.324005 196.670227,292.394623 
	C196.109665,296.538635 195.117874,300.273621 193.678802,304.006073 
	C182.917480,302.869568 172.605392,301.717438 162.288910,300.606018 
	C147.879929,299.053741 133.467667,297.531860 119.056801,295.997009 
	C117.764534,291.912842 116.472260,287.828674 115.191925,283.366638 
z"/>
<path fill="#4CC4DB" opacity="1.000000" stroke="none" 
	d="
M131.763977,323.450470 
	C144.308136,324.532806 156.957047,325.891296 169.592041,327.368866 
	C179.272629,328.500977 188.933823,329.798096 198.606918,330.995300 
	C211.722458,332.618530 224.834839,334.269989 237.960266,335.809662 
	C250.438950,337.273529 262.940308,338.544708 275.417664,340.019104 
	C288.213348,341.531158 300.987091,343.228729 313.779938,344.765808 
	C323.300140,345.909668 332.837280,346.912323 342.362976,348.011505 
	C344.659241,348.276459 346.940155,348.674500 349.660217,349.022583 
	C348.644806,350.681091 347.197266,352.328278 345.170319,353.754303 
	C334.661560,352.023529 324.760651,350.281677 314.795837,349.061920 
	C301.695038,347.458252 288.532104,346.368896 275.417786,344.866974 
	C262.313263,343.366150 249.242722,341.570404 236.144058,340.015411 
	C226.476425,338.867676 216.779922,337.964020 207.110153,336.832977 
	C196.795578,335.626526 186.494675,334.301331 176.192856,332.988434 
	C169.162949,332.092529 162.161118,330.923981 155.110855,330.255493 
	C148.626038,329.640625 142.093277,329.531158 135.581635,329.199066 
	C134.342010,327.391998 133.102371,325.584930 131.763977,323.450470 
z"/>
<path fill="#51CDDF" opacity="1.000000" stroke="none" 
	d="
M324.997131,368.854950 
	C324.005890,368.236053 323.067413,367.192383 322.015503,367.061615 
	C305.147949,364.965149 288.253418,363.084045 271.391083,360.948151 
	C257.150940,359.144379 242.964233,356.912567 228.716965,355.172333 
	C215.606445,353.570984 202.437775,352.451721 189.311874,350.968262 
	C180.619720,349.985901 171.972855,348.594177 163.275528,347.669922 
	C159.380966,347.256073 155.412354,347.539032 151.194717,347.824646 
	C149.273010,346.417480 147.633942,344.691467 145.878281,342.669800 
	C147.921219,341.988434 150.138000,341.075684 152.230957,341.302948 
	C165.353806,342.728149 178.451492,344.387848 191.552734,346.008392 
	C203.837479,347.527863 216.110886,349.139923 228.399506,350.626801 
	C238.235214,351.816895 248.091461,352.836456 257.929199,354.010590 
	C270.874603,355.555725 283.806732,357.211761 296.752258,358.756042 
	C306.263550,359.890656 315.799072,360.831024 325.295197,362.076263 
	C327.227417,362.329620 329.031769,363.558472 330.963745,364.717773 
	C330.269348,366.007080 329.506287,366.916229 328.123840,367.921112 
	C327.349915,368.374603 327.195343,368.732361 327.040771,369.090118 
	C327.040771,369.090118 327.014771,369.003265 326.723145,368.873718 
	C325.953400,368.781067 325.475250,368.818024 324.997131,368.854950 
z"/>
<path fill="#4DC7DC" opacity="1.000000" stroke="none" 
	d="
M135.709564,329.503326 
	C142.093277,329.531158 148.626038,329.640625 155.110855,330.255493 
	C162.161118,330.923981 169.162949,332.092529 176.192856,332.988434 
	C186.494675,334.301331 196.795578,335.626526 207.110153,336.832977 
	C216.779922,337.964020 226.476425,338.867676 236.144058,340.015411 
	C249.242722,341.570404 262.313263,343.366150 275.417786,344.866974 
	C288.532104,346.368896 301.695038,347.458252 314.795837,349.061920 
	C324.760651,350.281677 334.661560,352.023529 344.837830,353.835266 
	C344.335388,355.057281 343.586060,355.977173 342.552979,356.997131 
	C327.332245,355.392120 312.377563,353.826996 297.463409,351.941223 
	C283.541595,350.180908 269.686951,347.882416 255.758286,346.185486 
	C242.309174,344.546997 228.794266,343.455933 215.325745,341.966309 
	C207.115601,341.058289 198.945435,339.794830 190.744629,338.794891 
	C182.551224,337.795868 174.342819,336.919250 166.139526,336.001984 
	C157.110535,334.992310 148.079880,333.997498 138.620422,332.993347 
	C137.406418,331.929474 136.621948,330.868530 135.709564,329.503326 
z"/>
<path fill="#45B8D7" opacity="1.000000" stroke="none" 
	d="
M119.061111,296.364685 
	C133.467667,297.531860 147.879929,299.053741 162.288910,300.606018 
	C172.605392,301.717438 182.917480,302.869568 193.676132,304.403381 
	C193.259171,308.258423 192.397629,311.713593 191.092133,315.094482 
	C188.698929,314.680267 186.760544,314.248322 184.798523,314.016479 
	C176.599289,313.047729 168.392548,312.142487 160.189301,311.207458 
	C147.875610,309.803894 135.562515,308.394806 123.249176,306.988098 
	C121.854599,303.569519 120.460014,300.150909 119.061111,296.364685 
z"/>
<path fill="#48BDD9" opacity="1.000000" stroke="none" 
	d="
M123.301437,307.326447 
	C135.562515,308.394806 147.875610,309.803894 160.189301,311.207458 
	C168.392548,312.142487 176.599289,313.047729 184.798523,314.016479 
	C186.760544,314.248322 188.698929,314.680267 191.005096,315.485809 
	C190.867065,318.311310 190.372116,320.671143 189.877167,323.031006 
	C175.348816,321.438171 160.826447,319.787750 146.289154,318.281189 
	C140.561798,317.687653 134.801163,317.415314 128.615036,316.994446 
	C126.567497,313.883057 124.960602,310.773926 123.301437,307.326447 
z"/>
<path fill="#2D8CC7" opacity="1.000000" stroke="none" 
	d="
M112.928085,229.420013 
	C114.315834,222.133560 115.765236,215.259308 117.873795,208.165314 
	C121.584175,208.622543 124.635414,209.299484 127.591064,210.313187 
	C123.317368,218.430588 123.596169,226.656769 124.628967,235.001068 
	C120.496284,234.663910 116.795815,234.327209 113.095352,233.990509 
	C113.060143,232.604401 113.024940,231.218292 112.928085,229.420013 
z"/>
<path fill="#339CCC" opacity="1.000000" stroke="none" 
	d="
M112.965157,234.387955 
	C116.795815,234.327209 120.496284,234.663910 124.840210,235.291534 
	C127.351089,239.989578 129.218491,244.396683 131.085907,248.803787 
	C126.063362,248.703690 121.039993,248.631180 116.018890,248.482285 
	C114.893311,248.448883 113.775665,248.148056 112.208946,247.944855 
	C112.120674,243.541367 112.477814,239.163376 112.965157,234.387955 
z"/>
<path fill="#1D78BE" opacity="1.000000" stroke="none" 
	d="
M126.904915,186.747192 
	C129.333725,182.463745 131.762543,178.180267 134.562454,174.071686 
	C136.871780,175.164368 138.732437,176.605804 140.762070,176.906448 
	C148.259048,178.016953 155.815674,178.719070 163.342834,179.632782 
	C175.127945,181.063339 186.898941,182.613739 198.691437,183.979233 
	C211.472031,185.459137 224.279480,186.707794 237.058517,188.200272 
	C249.990433,189.710602 262.918549,191.276917 275.811249,193.083557 
	C279.276672,193.569168 282.606903,195.019165 285.660034,196.181213 
	C274.404785,199.053665 270.237183,203.733200 268.318146,214.974701 
	C265.998779,214.979645 264.088043,214.978226 262.028320,214.652252 
	C255.858261,201.489365 246.532181,198.301071 233.022446,204.129761 
	C231.581253,203.159409 230.354507,202.254471 229.022415,202.055786 
	C224.156616,201.330124 219.255493,200.841583 214.368057,200.260742 
	C205.235596,199.175400 196.103378,198.087952 186.818222,196.642700 
	C184.825256,191.802567 181.793579,194.391754 178.674484,194.958420 
	C174.139877,194.544235 170.014328,194.273026 165.912537,193.797165 
	C155.416901,192.579514 144.910049,191.420090 134.457886,189.893509 
	C131.842850,189.511566 129.417465,187.830948 126.904915,186.747192 
z"/>
<path fill="#1971BC" opacity="1.000000" stroke="none" 
	d="
M285.999207,196.026459 
	C282.606903,195.019165 279.276672,193.569168 275.811249,193.083557 
	C262.918549,191.276917 249.990433,189.710602 237.058517,188.200272 
	C224.279480,186.707794 211.472031,185.459137 198.691437,183.979233 
	C186.898941,182.613739 175.127945,181.063339 163.342834,179.632782 
	C155.815674,178.719070 148.259048,178.016953 140.762070,176.906448 
	C138.732437,176.605804 136.871780,175.164368 134.821472,173.826050 
	C136.588760,170.671326 138.468124,167.937119 140.824829,165.383148 
	C142.304626,166.041840 143.268585,166.812622 144.315918,166.950668 
	C150.530121,167.769745 156.773193,168.368912 162.988770,169.178650 
	C177.536804,171.073944 192.052979,173.232407 206.622269,174.941559 
	C225.462891,177.151779 244.358673,178.891098 263.201050,181.087601 
	C281.543243,183.225800 299.858551,185.606689 318.160400,188.069031 
	C321.832916,188.563126 325.391693,189.902985 328.628235,190.934723 
	C325.175903,192.868423 322.098236,194.720322 319.102844,196.522705 
	C318.962189,196.112717 318.477936,194.701080 317.907990,193.039642 
	C315.497559,194.108475 311.798798,192.452545 311.768188,197.005219 
	C308.865753,196.724716 306.421295,196.192322 303.986298,196.232452 
	C300.970428,196.282166 297.962372,196.806595 294.548035,197.093475 
	C291.429779,196.716156 288.714508,196.371307 285.999207,196.026459 
z"/>
<path fill="#3098CA" opacity="1.000000" stroke="none" 
	d="
M298.301849,268.143921 
	C292.999725,267.099792 287.733795,265.788696 282.388336,265.064178 
	C269.133453,263.267609 255.851593,261.658203 242.562988,260.125977 
	C229.758545,258.649567 216.926727,257.411957 204.118027,255.970673 
	C199.194550,255.416656 194.293304,254.640015 189.406921,253.816513 
	C188.867569,253.725616 188.493179,252.655884 188.429840,251.556030 
	C192.822098,251.548370 193.372116,249.132263 193.519775,245.999084 
	C200.341187,246.657593 206.708023,247.315689 213.468414,247.964539 
	C215.668579,247.839371 217.475174,247.723434 219.700439,247.811813 
	C221.055466,248.332062 221.970749,248.819931 222.931381,248.937714 
	C234.227661,250.322678 245.530518,251.653793 256.832062,252.995819 
	C268.133484,254.337814 279.432190,255.703613 290.738037,257.007385 
	C299.749176,258.046539 308.769531,259.005676 317.785309,260.004822 
	C324.016815,260.695374 330.251495,261.359924 336.477448,262.097778 
	C342.535339,262.815704 348.575165,263.692200 354.638519,264.356995 
	C366.114471,265.615234 377.601593,266.771667 389.319092,268.002136 
	C389.554077,268.033844 390.010529,268.162598 390.010529,268.162598 
	C389.722931,270.496887 389.435364,272.831177 388.662781,275.579681 
	C382.799347,275.341431 377.422607,274.674500 372.042175,274.039124 
	C355.241486,272.055115 338.444885,270.032867 321.629242,268.184326 
	C319.956940,268.000488 318.165131,268.903259 316.103485,269.184753 
	C310.115295,265.684692 304.278534,265.590820 298.301849,268.143921 
z"/>
<path fill="#F0EEF0" opacity="1.000000" stroke="none" 
	d="
M390.371887,267.967712 
	C390.010529,268.162598 389.554077,268.033844 389.270325,267.583374 
	C389.003937,265.446655 389.021332,263.760376 389.385193,261.821716 
	C389.808197,257.378815 389.884674,253.188278 390.036194,248.546021 
	C389.806732,244.065491 389.502228,240.036667 389.228760,235.568359 
	C388.301575,229.713150 387.343414,224.297424 386.330627,218.481659 
	C383.654633,210.359787 381.033295,202.637939 378.309204,194.560165 
	C375.844757,189.786407 373.483063,185.368591 371.043091,180.612915 
	C369.324921,177.817688 367.685028,175.360306 365.971100,172.592621 
	C364.919678,171.187958 363.942230,170.093643 362.919678,168.671738 
	C361.611328,166.884415 360.348083,165.424652 359.014526,163.642273 
	C357.741302,161.843857 356.538452,160.368103 355.177490,158.585297 
	C351.802612,155.144470 348.585907,152.010696 345.196533,148.575241 
	C340.115875,144.316330 335.207825,140.359116 330.018738,136.199860 
	C319.936096,130.866714 310.532745,124.681709 300.259277,120.799347 
	C267.631378,108.469238 234.679733,108.300903 201.488724,120.706299 
	C195.174484,123.764267 189.225800,126.726532 182.909592,129.694183 
	C181.339508,129.893417 180.136948,130.087250 178.934387,130.281082 
	C188.198715,125.371086 197.046921,119.328850 206.798584,115.744781 
	C251.827438,99.195137 294.880219,103.783638 334.574432,131.020828 
	C366.197784,152.720032 383.985687,183.682983 390.946838,221.133423 
	C393.840912,236.703278 393.593994,252.239151 390.371887,267.967712 
z"/>
<path fill="#1266B8" opacity="1.000000" stroke="none" 
	d="
M366.045105,172.902924 
	C367.685028,175.360306 369.324921,177.817688 370.677734,180.768036 
	C369.109161,181.416306 367.794067,181.841080 366.551422,181.685867 
	C351.809448,179.844315 337.094727,177.775696 322.340088,176.046402 
	C303.799347,173.873367 285.221344,172.020218 266.672272,169.915909 
	C249.935165,168.017151 233.214310,165.974762 216.488464,163.977478 
	C210.092056,163.213654 203.704056,162.379654 197.308075,161.612213 
	C187.142868,160.392532 176.938110,159.439362 166.821625,157.902557 
	C161.456207,157.087509 156.241501,155.280487 150.958771,153.921234 
	C152.763489,152.018723 154.568207,150.116211 156.859253,148.418457 
	C158.693848,149.081924 160.013519,149.806320 161.395157,149.955032 
	C168.784622,150.750458 176.204529,151.273254 183.586075,152.129944 
	C199.809738,154.012863 216.020554,156.008789 232.228760,158.021713 
	C239.265976,158.895691 246.277878,159.972046 253.312073,160.872162 
	C261.824371,161.961426 270.345032,162.987305 278.867737,163.992325 
	C286.731049,164.919586 294.605865,165.749527 302.468384,166.683319 
	C311.482178,167.753845 320.484406,168.921967 329.498352,169.990906 
	C337.524780,170.942734 345.548553,171.948456 353.596802,172.671005 
	C357.719940,173.041183 361.894043,172.843811 366.045105,172.902924 
z"/>
<path fill="#0B5CB4" opacity="1.000000" stroke="none" 
	d="
M345.369171,148.876923 
	C348.585907,152.010696 351.802612,155.144470 354.704559,158.616074 
	C347.985596,158.371384 341.568268,157.904556 335.180511,157.177628 
	C326.820709,156.226257 318.495148,154.974472 310.135376,154.022720 
	C297.020233,152.529556 283.874146,151.301926 270.768158,149.735916 
	C255.871216,147.955917 241.016144,145.826004 226.120361,144.035385 
	C210.888306,142.204361 195.614334,140.716400 180.394333,138.795776 
	C177.452255,138.424500 174.674667,136.749756 171.821198,135.676285 
	C174.012009,133.978027 176.202820,132.279755 178.664001,130.431274 
	C180.136948,130.087250 181.339508,129.893417 183.372696,129.795746 
	C196.953705,131.595047 209.698410,133.342377 222.456314,134.987137 
	C232.432358,136.273209 242.423050,137.447006 252.410522,138.643112 
	C261.911011,139.780899 271.416626,140.876205 280.918518,142.002441 
	C291.071777,143.205902 301.212341,144.527817 311.378662,145.607391 
	C322.696899,146.809311 334.038025,147.796341 345.369171,148.876923 
z"/>
<path fill="#166DBA" opacity="1.000000" stroke="none" 
	d="
M329.002899,190.852905 
	C325.391693,189.902985 321.832916,188.563126 318.160400,188.069031 
	C299.858551,185.606689 281.543243,183.225800 263.201050,181.087601 
	C244.358673,178.891098 225.462891,177.151779 206.622269,174.941559 
	C192.052979,173.232407 177.536804,171.073944 162.988770,169.178650 
	C156.773193,168.368912 150.530121,167.769745 144.315918,166.950668 
	C143.268585,166.812622 142.304626,166.041840 141.123642,165.218567 
	C142.415680,162.966995 143.886230,161.060272 145.730240,159.382263 
	C146.893265,160.072800 147.644485,160.845901 148.478287,160.948608 
	C157.481003,162.057663 166.501938,163.017899 175.507629,164.103821 
	C188.765991,165.702576 202.016815,167.364029 215.269333,169.010956 
	C225.738983,170.312042 236.207062,171.626007 246.674530,172.944550 
	C254.691284,173.954391 262.694031,175.088699 270.724304,175.974716 
	C284.172699,177.458511 297.649811,178.685181 311.092926,180.212830 
	C324.031616,181.683136 336.958405,183.282669 349.857361,185.065033 
	C354.632324,185.724838 359.313080,187.066666 364.059875,188.488846 
	C363.796661,190.614487 363.510315,192.348709 362.788696,194.051208 
	C355.936707,193.345444 349.519989,192.671432 342.846497,191.727448 
	C340.766846,191.271622 338.947540,190.991089 337.120209,190.922150 
	C334.417419,190.820206 331.708954,190.868546 329.002899,190.852905 
z"/>
<path fill="#146AB9" opacity="1.000000" stroke="none" 
	d="
M364.036804,188.097443 
	C359.313080,187.066666 354.632324,185.724838 349.857361,185.065033 
	C336.958405,183.282669 324.031616,181.683136 311.092926,180.212830 
	C297.649811,178.685181 284.172699,177.458511 270.724304,175.974716 
	C262.694031,175.088699 254.691284,173.954391 246.674530,172.944550 
	C236.207062,171.626007 225.738983,170.312042 215.269333,169.010956 
	C202.016815,167.364029 188.765991,165.702576 175.507629,164.103821 
	C166.501938,163.017899 157.481003,162.057663 148.478287,160.948608 
	C147.644485,160.845901 146.893265,160.072800 146.024078,159.218674 
	C147.421890,157.287323 148.899338,155.748276 150.667786,154.065247 
	C156.241501,155.280487 161.456207,157.087509 166.821625,157.902557 
	C176.938110,159.439362 187.142868,160.392532 197.308075,161.612213 
	C203.704056,162.379654 210.092056,163.213654 216.488464,163.977478 
	C233.214310,165.974762 249.935165,168.017151 266.672272,169.915909 
	C285.221344,172.020218 303.799347,173.873367 322.340088,176.046402 
	C337.094727,177.775696 351.809448,179.844315 366.551422,181.685867 
	C367.794067,181.841080 369.109161,181.416306 370.755981,181.105896 
	C373.483063,185.368591 375.844757,189.786407 377.840485,194.583344 
	C375.227753,194.488571 372.980957,194.014709 370.740295,193.163666 
	C371.060822,190.893021 371.375214,188.999573 371.806854,186.400085 
	C369.009033,187.011261 366.522919,187.554352 364.036804,188.097443 
z"/>
<path fill="#41B2D4" opacity="1.000000" stroke="none" 
	d="
M376.911316,310.995087 
	C374.422150,315.827789 371.933014,320.660522 368.754211,325.745850 
	C365.113831,325.666870 362.160278,325.358093 359.212799,324.999542 
	C348.403992,323.684631 337.602509,322.307556 326.787964,321.042114 
	C317.776031,319.987579 308.749634,319.056793 299.533569,317.732910 
	C298.924713,313.849304 298.511993,310.303955 298.075500,306.554657 
	C308.356171,311.452911 312.580902,310.731232 321.141174,303.231262 
	C322.830414,304.055176 324.304810,304.744537 325.845978,304.963043 
	C332.695312,305.934326 339.555542,306.841827 346.427307,307.639069 
	C356.581757,308.817078 366.749329,309.882019 376.911316,310.995087 
z"/>
<path fill="#0D5FB5" opacity="1.000000" stroke="none" 
	d="
M171.530518,135.823334 
	C174.674667,136.749756 177.452255,138.424500 180.394333,138.795776 
	C195.614334,140.716400 210.888306,142.204361 226.120361,144.035385 
	C241.016144,145.826004 255.871216,147.955917 270.768158,149.735916 
	C283.874146,151.301926 297.020233,152.529556 310.135376,154.022720 
	C318.495148,154.974472 326.820709,156.226257 335.180511,157.177628 
	C341.568268,157.904556 347.985596,158.371384 354.862671,158.923126 
	C356.538452,160.368103 357.741302,161.843857 358.648254,163.799347 
	C357.065125,164.495224 355.739075,165.027786 354.497192,164.875168 
	C347.461639,164.010605 340.460785,162.858063 333.421051,162.034851 
	C318.341827,160.271515 303.232147,158.764816 288.160706,156.939896 
	C270.149658,154.759079 252.175995,152.270203 234.165787,150.082153 
	C224.170700,148.867859 214.125290,148.073380 204.118622,146.947052 
	C193.136261,145.710861 182.156998,144.418503 171.217606,142.861069 
	C169.647995,142.637604 168.309601,140.790085 166.864212,139.694153 
	C168.322754,138.452881 169.781296,137.211624 171.530518,135.823334 
z"/>
<path fill="#48BDD9" opacity="1.000000" stroke="none" 
	d="
M355.576447,343.936615 
	C345.510956,342.732758 335.739990,341.318817 325.954437,340.014069 
	C317.130463,338.837494 308.295959,337.735229 299.456116,336.683990 
	C291.439087,335.730652 283.398621,334.970520 275.387329,333.973724 
	C269.357269,333.223419 263.357056,332.233521 256.980103,330.653229 
	C256.303131,326.973755 255.989624,323.991364 256.131134,321.007355 
	C268.684631,322.335754 280.783142,323.665741 293.007202,325.296478 
	C294.757477,325.803314 296.382172,326.009399 298.092468,326.574707 
	C299.939453,327.622284 301.653137,328.713104 303.470551,328.928589 
	C310.852997,329.803986 318.273285,330.353394 325.668488,331.129456 
	C337.987061,332.422150 350.297119,333.796600 362.610748,335.136597 
	C360.362030,338.015747 358.113342,340.894897 355.576447,343.936615 
z"/>
<path fill="#1064B7" opacity="1.000000" stroke="none" 
	d="
M365.971100,172.592606 
	C361.894043,172.843811 357.719940,173.041183 353.596802,172.671005 
	C345.548553,171.948456 337.524780,170.942734 329.498352,169.990906 
	C320.484406,168.921967 311.482178,167.753845 302.468384,166.683319 
	C294.605865,165.749527 286.731049,164.919586 278.867737,163.992325 
	C270.345032,162.987305 261.824371,161.961426 253.312073,160.872162 
	C246.277878,159.972046 239.265976,158.895691 232.228760,158.021713 
	C216.020554,156.008789 199.809738,154.012863 183.586075,152.129944 
	C176.204529,151.273254 168.784622,150.750458 161.395157,149.955032 
	C160.013519,149.806320 158.693848,149.081924 157.154663,148.271790 
	C158.352020,146.524765 159.740311,145.129150 161.687469,144.035538 
	C163.767303,144.898697 165.248062,145.765686 166.815689,145.971771 
	C177.609543,147.390701 188.425018,148.644028 199.226532,150.006271 
	C206.755875,150.955811 214.259537,152.124252 221.800446,152.963531 
	C235.090042,154.442596 248.412979,155.626343 261.696472,157.155182 
	C274.476624,158.626114 287.219666,160.416519 299.988129,161.992752 
	C309.487732,163.165466 318.997070,164.263565 328.510742,165.316635 
	C339.990662,166.587387 351.479706,167.775467 362.964813,168.999313 
	C363.942230,170.093643 364.919678,171.187958 365.971100,172.592606 
z"/>
<path fill="#3BA9D1" opacity="1.000000" stroke="none" 
	d="
M377.090881,310.683960 
	C366.749329,309.882019 356.581757,308.817078 346.427307,307.639069 
	C339.555542,306.841827 332.695312,305.934326 325.845978,304.963043 
	C324.304810,304.744537 322.830414,304.055176 321.250061,302.894592 
	C322.455322,298.470764 323.735870,294.734833 325.479797,290.999298 
	C342.802429,292.775909 359.658020,294.588257 376.525299,296.284454 
	C378.730530,296.506195 380.995758,296.131409 383.233215,296.032898 
	C381.245605,300.812866 379.258026,305.592834 377.090881,310.683960 
z"/>
<path fill="#0E61B6" opacity="1.000000" stroke="none" 
	d="
M362.919678,168.671738 
	C351.479706,167.775467 339.990662,166.587387 328.510742,165.316635 
	C318.997070,164.263565 309.487732,163.165466 299.988129,161.992752 
	C287.219666,160.416519 274.476624,158.626114 261.696472,157.155182 
	C248.412979,155.626343 235.090042,154.442596 221.800446,152.963531 
	C214.259537,152.124252 206.755875,150.955811 199.226532,150.006271 
	C188.425018,148.644028 177.609543,147.390701 166.815689,145.971771 
	C165.248062,145.765686 163.767303,144.898697 162.026367,143.998978 
	C163.280655,142.402557 164.754913,141.144684 166.546692,139.790466 
	C168.309601,140.790085 169.647995,142.637604 171.217606,142.861069 
	C182.156998,144.418503 193.136261,145.710861 204.118622,146.947052 
	C214.125290,148.073380 224.170700,148.867859 234.165787,150.082153 
	C252.175995,152.270203 270.149658,154.759079 288.160706,156.939896 
	C303.232147,158.764816 318.341827,160.271515 333.421051,162.034851 
	C340.460785,162.858063 347.461639,164.010605 354.497192,164.875168 
	C355.739075,165.027786 357.065125,164.495224 358.718567,164.121979 
	C360.348083,165.424652 361.611328,166.884415 362.919678,168.671738 
z"/>
<path fill="#37A1CE" opacity="1.000000" stroke="none" 
	d="
M383.521912,295.816071 
	C380.995758,296.131409 378.730530,296.506195 376.525299,296.284454 
	C359.658020,294.588257 342.802429,292.775909 325.410431,290.571716 
	C324.245331,286.096191 323.612976,282.048645 323.430084,278.000671 
	C332.033661,278.877014 340.190521,279.728973 348.341278,280.636292 
	C361.221863,282.070068 374.098358,283.540985 386.976562,284.996216 
	C385.921265,288.530548 384.865967,292.064911 383.521912,295.816071 
z"/>
<path fill="#45B8D7" opacity="1.000000" stroke="none" 
	d="
M362.841797,334.930756 
	C350.297119,333.796600 337.987061,332.422150 325.668488,331.129456 
	C318.273285,330.353394 310.852997,329.803986 303.470551,328.928589 
	C301.653137,328.713104 299.939453,327.622284 298.488312,326.454376 
	C299.108917,323.340332 299.419281,320.705750 299.729645,318.071198 
	C308.749634,319.056793 317.776031,319.987579 326.787964,321.042114 
	C337.602509,322.307556 348.403992,323.684631 359.212799,324.999542 
	C362.160278,325.358093 365.113831,325.666870 368.503052,325.997437 
	C366.985321,328.905914 365.029083,331.815399 362.841797,334.930756 
z"/>
<path fill="#2380C2" opacity="1.000000" stroke="none" 
	d="
M126.619499,186.965714 
	C129.417465,187.830948 131.842850,189.511566 134.457886,189.893509 
	C144.910049,191.420090 155.416901,192.579514 165.912537,193.797165 
	C170.014328,194.273026 174.139877,194.544235 178.751282,195.365875 
	C179.842010,201.215744 180.436050,206.608383 180.609894,212.000793 
	C177.466614,211.666779 174.743530,211.333023 171.876358,210.688156 
	C167.362289,201.723602 160.345947,197.038116 150.638992,197.361908 
	C141.014496,197.682938 133.030701,201.576309 127.686646,209.976425 
	C124.635414,209.299484 121.584175,208.622543 118.123642,207.889801 
	C120.587593,200.950745 123.460838,194.067490 126.619499,186.965714 
z"/>
<path fill="#339CCC" opacity="1.000000" stroke="none" 
	d="
M387.246094,284.707886 
	C374.098358,283.540985 361.221863,282.070068 348.341278,280.636292 
	C340.190521,279.728973 332.033661,278.877014 323.202026,277.749146 
	C320.492615,274.765930 318.460693,272.033813 316.428802,269.301697 
	C318.165131,268.903259 319.956940,268.000488 321.629242,268.184326 
	C338.444885,270.032867 355.241486,272.055115 372.042175,274.039124 
	C377.422607,274.674500 382.799347,275.341431 388.642761,275.986084 
	C388.577087,278.792053 388.046356,281.605774 387.246094,284.707886 
z"/>
<path fill="#F9F5F4" opacity="1.000000" stroke="none" 
	d="
M319.443329,374.167847 
	C320.524658,372.990112 321.950012,371.860107 323.727356,370.907959 
	C322.648682,372.129089 321.218018,373.172333 319.443329,374.167847 
z"/>
<path fill="#F9F5F4" opacity="1.000000" stroke="none" 
	d="
M324.756836,369.102234 
	C325.475250,368.818024 325.953400,368.781067 326.752472,368.908264 
	C326.295380,369.755737 325.517334,370.439056 324.414307,371.105469 
	C324.231720,370.508881 324.374115,369.929199 324.756836,369.102234 
z"/>
<path fill="#F9F5F4" opacity="1.000000" stroke="none" 
	d="
M327.330322,369.057434 
	C327.195343,368.732361 327.349915,368.374603 327.835297,368.010437 
	C327.984009,368.344299 327.801910,368.684509 327.330322,369.057434 
z"/>
<path fill="#F9FCFE" opacity="1.000000" stroke="none" 
	d="
M190.307831,323.097534 
	C190.372116,320.671143 190.867065,318.311310 191.449036,315.560120 
	C192.397629,311.713593 193.259171,308.258423 194.123413,304.405945 
	C195.117874,300.273621 196.109665,296.538635 197.096085,292.405457 
	C198.153580,287.976959 199.216446,283.946625 200.325943,279.515350 
	C201.332016,275.376862 202.291458,271.639282 203.286224,267.499725 
	C203.976227,263.435699 207.019974,263.101624 209.646286,263.332245 
	C211.305679,263.477997 213.159393,264.961121 214.321136,266.350220 
	C215.873459,268.206390 216.839417,270.552948 218.411621,273.273560 
	C222.222916,279.902527 225.679779,285.946808 229.200195,292.329285 
	C232.815643,298.786194 236.367584,304.904999 239.983765,311.389771 
	C240.780502,313.313629 241.512985,314.871490 242.296982,316.538910 
	C233.188324,318.416077 235.043640,319.320465 230.947876,311.742126 
	C229.925598,309.850647 228.742599,308.015747 227.975845,306.023102 
	C226.639313,302.549866 224.435089,301.342224 220.713120,301.971924 
	C215.342300,302.880646 209.876038,303.229950 204.511246,304.166077 
	C203.255920,304.385101 201.559052,305.816833 201.240051,307.005768 
	C199.916824,311.937744 199.043518,316.990417 198.005035,321.998779 
	C195.582855,322.387207 193.160675,322.775635 190.307831,323.097534 
M220.012924,295.998566 
	C220.237198,294.823700 221.019562,293.374359 220.597961,292.517151 
	C217.035004,285.272888 213.252197,278.136780 209.311874,270.537018 
	C207.350159,279.837860 205.485779,288.677094 203.502228,298.081421 
	C209.408722,297.318176 214.305099,296.685486 220.012924,295.998566 
z"/>
<path fill="#F7FBFD" opacity="1.000000" stroke="none" 
	d="
M127.591064,210.313187 
	C133.030701,201.576309 141.014496,197.682938 150.638992,197.361908 
	C160.345947,197.038116 167.362289,201.723602 171.661865,210.960754 
	C169.464401,212.355881 167.337357,213.167282 165.114792,214.015106 
	C161.862000,208.575439 158.246979,204.194183 151.560165,203.968018 
	C139.276062,203.552490 131.638458,211.779800 132.090256,225.408020 
	C133.682938,231.489731 134.561020,237.551010 137.195663,242.716339 
	C140.488251,249.171600 147.004593,250.869888 153.942917,249.865219 
	C160.606216,248.900391 165.136261,245.123047 167.143127,238.559052 
	C167.614990,237.015686 168.096619,235.475311 168.636948,233.729370 
	C171.110367,233.934799 173.365479,234.122086 176.405869,234.374588 
	C175.290344,237.934860 174.364639,240.889313 173.235962,244.088837 
	C171.477524,246.497528 169.922089,248.661148 168.366653,250.824768 
	C158.210434,257.513489 147.688675,259.319641 136.672516,253.002914 
	C134.865677,251.966858 133.345627,250.430664 131.389465,248.964722 
	C129.218491,244.396683 127.351089,239.989578 125.272430,235.291992 
	C123.596169,226.656769 123.317368,218.430588 127.591064,210.313187 
z"/>
<path fill="#F7FBFD" opacity="1.000000" stroke="none" 
	d="
M316.103485,269.184753 
	C318.460693,272.033813 320.492615,274.765930 322.752594,277.749542 
	C323.612976,282.048645 324.245331,286.096191 324.947021,290.571350 
	C323.735870,294.734833 322.455322,298.470764 321.065948,302.543335 
	C312.580902,310.731232 308.356171,311.452911 298.075500,306.554657 
	C298.511993,310.303955 298.924713,313.849304 299.533569,317.732910 
	C299.419281,320.705750 299.108917,323.340332 298.402710,326.095215 
	C296.382172,326.009399 294.757477,325.803314 293.043091,324.885437 
	C292.180786,318.106171 291.408203,312.038605 290.662170,305.570374 
	C289.655243,297.427246 288.621826,289.684784 287.588379,281.942322 
	C287.170715,279.539398 286.337952,277.113678 286.468414,274.740906 
	C286.570312,272.887909 287.420929,270.407349 288.789612,269.524353 
	C289.725647,268.920441 292.124786,270.584351 293.869843,271.234406 
	C293.822662,271.711273 293.775513,272.188110 293.728363,272.664978 
	C295.123444,271.346497 296.518494,270.028015 298.107727,268.426727 
	C304.278534,265.590820 310.115295,265.684692 316.103485,269.184753 
M296.599579,295.601685 
	C298.443604,300.531219 301.557373,304.065399 307.207184,303.818970 
	C312.039917,303.608154 315.383728,300.717377 316.647919,296.161224 
	C318.345123,290.044281 317.792542,283.895081 314.885254,278.195557 
	C312.873138,274.250854 309.705841,271.624573 304.913971,272.030853 
	C300.172180,272.432922 296.816528,275.314148 296.186523,279.677673 
	C295.470734,284.635040 296.186707,289.799164 296.599579,295.601685 
z"/>
<path fill="#F9FCFE" opacity="1.000000" stroke="none" 
	d="
M255.676117,321.008942 
	C255.989624,323.991364 256.303131,326.973755 256.720123,330.319153 
	C250.661530,333.043030 249.767731,332.715881 248.920654,326.990417 
	C248.178757,321.111877 247.488358,316.051331 246.826157,310.583252 
	C246.063614,304.428497 245.272858,298.681274 244.464355,292.495880 
	C243.971146,286.374481 243.495651,280.691315 243.020157,275.008118 
	C244.673141,274.884491 246.326126,274.760864 248.344833,274.609863 
	C248.746918,275.601166 249.199951,276.718079 249.732498,278.031006 
	C259.985352,268.753082 269.257233,269.482605 277.794403,281.158813 
	C281.423248,288.833588 281.763153,296.148895 279.529419,303.893188 
	C274.113831,314.278473 268.546173,316.357452 254.343887,313.288177 
	C254.799042,315.925964 255.237579,318.467468 255.676117,321.008942 
M272.560974,302.709625 
	C274.879578,296.399567 274.082397,290.228607 271.418549,284.278931 
	C269.413177,279.799988 266.020264,277.143311 260.780396,277.704590 
	C255.742935,278.244141 252.591125,281.487488 252.166260,286.040619 
	C251.686966,291.177368 252.151093,296.556091 253.182434,301.630920 
	C254.002975,305.668488 257.000763,308.625885 261.562164,309.110138 
	C266.379059,309.621552 270.007843,307.837402 272.560974,302.709625 
z"/>
<path fill="#F7FAFD" opacity="1.000000" stroke="none" 
	d="
M181.030106,212.001038 
	C180.436050,206.608383 179.842010,201.215744 179.171158,195.415634 
	C181.793579,194.391754 184.825256,191.802567 186.769348,197.080231 
	C187.413101,202.159134 187.952850,206.441864 188.556183,211.229034 
	C191.230515,209.871674 192.793762,208.973679 194.437347,208.261002 
	C205.010422,203.676407 213.859344,208.072800 216.360474,219.104721 
	C216.506821,219.750229 216.770065,220.369247 216.929672,221.439499 
	C217.696457,228.321030 218.512497,234.763641 219.323456,241.621124 
	C219.306198,243.893143 219.293991,245.750320 219.281784,247.607513 
	C217.475174,247.723434 215.668579,247.839371 213.375565,247.572525 
	C212.275574,243.460251 211.661987,239.730728 211.086029,235.566208 
	C210.440842,229.900040 210.058945,224.606491 208.991058,219.455170 
	C207.911102,214.245743 203.570633,211.972214 198.434006,213.291214 
	C193.089218,214.663681 189.851212,218.962234 190.182251,224.686844 
	C190.362350,227.801147 191.006042,230.888641 191.436600,234.438019 
	C191.976761,238.591431 192.520981,242.295044 193.065201,245.998657 
	C193.372116,249.132263 192.822098,251.548370 188.412292,251.169922 
	C187.573380,251.182755 187.139587,251.097595 186.376663,250.553406 
	C185.708328,248.063049 185.369141,246.031708 185.070923,243.567352 
	C184.525101,238.735229 183.938339,234.336136 183.357971,229.501999 
	C182.586304,223.378326 181.808197,217.689682 181.030106,212.001038 
z"/>
<path fill="#3BA9D1" opacity="1.000000" stroke="none" 
	d="
M242.574005,275.002197 
	C243.495651,280.691315 243.971146,286.374481 243.988998,292.511292 
	C238.733139,292.640320 233.934891,292.315704 229.136658,291.991119 
	C225.679779,285.946808 222.222916,279.902527 218.630859,273.519836 
	C226.373062,273.786407 234.250458,274.391357 242.574005,275.002197 
z"/>
<path fill="#3CABD2" opacity="1.000000" stroke="none" 
	d="
M279.772888,303.642914 
	C281.763153,296.148895 281.423248,288.833588 278.048676,281.373291 
	C280.893616,281.316986 283.783264,281.635040 287.130646,281.947723 
	C288.621826,289.684784 289.655243,297.427246 290.247955,305.577698 
	C286.462463,305.204742 283.117676,304.423828 279.772888,303.642914 
z"/>
<path fill="#3098CA" opacity="1.000000" stroke="none" 
	d="
M185.029968,244.000366 
	C185.369141,246.031708 185.708328,248.063049 186.053741,250.477814 
	C184.816772,251.573868 183.515488,252.975327 182.340790,252.876236 
	C177.961288,252.506805 173.623322,251.645020 168.818207,250.896378 
	C169.922089,248.661148 171.477524,246.497528 173.737366,244.131165 
	C177.971161,243.952408 181.500565,243.976379 185.029968,244.000366 
z"/>
<path fill="#47BAD8" opacity="1.000000" stroke="none" 
	d="
M246.797943,310.990814 
	C247.488358,316.051331 248.178757,321.111877 248.831329,326.583313 
	C232.144928,325.335968 215.496353,323.677643 198.426422,322.009033 
	C199.043518,316.990417 199.916824,311.937744 201.240051,307.005768 
	C201.559052,305.816833 203.255920,304.385101 204.511246,304.166077 
	C209.876038,303.229950 215.342300,302.880646 220.713120,301.971924 
	C224.435089,301.342224 226.639313,302.549866 227.975845,306.023102 
	C228.742599,308.015747 229.925598,309.850647 230.947876,311.742126 
	C235.043640,319.320465 233.188324,318.416077 242.296982,316.538910 
	C241.512985,314.871490 240.780502,313.313629 240.417145,311.382812 
	C242.790161,311.003540 244.794052,310.997162 246.797943,310.990814 
z"/>
<path fill="#F7FAFD" opacity="1.000000" stroke="none" 
	d="
M233.188538,204.519287 
	C246.532181,198.301071 255.858261,201.489365 262.023438,215.057220 
	C262.508850,217.977234 262.850189,220.167755 263.220184,222.542343 
	C252.716965,223.900909 242.925568,225.167404 232.531525,226.511856 
	C233.572922,229.137650 234.107849,231.252136 235.176804,233.048935 
	C239.755585,240.745468 251.222794,241.129700 254.815903,233.355682 
	C256.973969,228.686523 259.729736,228.468704 264.057739,229.455185 
	C263.474243,231.380905 262.948700,233.115402 262.223083,235.088333 
	C259.351013,237.921356 256.679016,240.515930 253.621765,243.139191 
	C244.670090,246.220901 236.873383,245.218201 229.981110,238.454529 
	C228.187851,232.416260 226.522049,226.701965 224.928802,220.586182 
	C225.459244,213.775925 228.059525,208.486816 233.188538,204.519287 
M235.483566,211.017502 
	C234.275406,213.774887 233.067230,216.532257 231.309769,220.543304 
	C240.137268,219.497482 247.445221,218.631683 254.755966,217.765564 
	C253.593369,207.559250 244.592804,204.219406 235.483566,211.017502 
z"/>
<path fill="#F7FBFD" opacity="1.000000" stroke="none" 
	d="
M285.660034,196.181213 
	C288.714508,196.371307 291.429779,196.716156 294.761383,197.350525 
	C301.442078,200.100586 303.995239,205.420807 306.262085,211.374695 
	C306.551300,213.503143 306.825775,215.243118 307.133850,217.196075 
	C298.131470,218.487823 289.563293,219.717270 280.581726,220.898254 
	C277.789795,220.742645 276.328217,221.235962 277.181244,224.217499 
	C278.684143,229.470261 283.486267,233.527603 288.758362,233.689209 
	C294.243622,233.857346 297.917480,230.976089 300.106873,224.658234 
	C302.822479,224.765533 306.969971,220.866928 307.045898,227.303925 
	C304.257111,230.802689 301.634430,233.989365 298.637024,237.247192 
	C290.209534,240.139816 282.421509,240.414993 275.070740,234.613861 
	C269.816681,228.827560 268.957672,221.998383 268.726776,214.968369 
	C270.237183,203.733200 274.404785,199.053665 285.660034,196.181213 
M288.324371,213.848679 
	C291.835815,213.331009 295.347260,212.813354 298.926422,212.285706 
	C296.727081,204.626617 291.958801,201.120407 285.818207,202.151947 
	C279.810150,203.161224 276.193390,208.076874 276.645203,215.092712 
	C280.251526,214.703278 283.844025,214.315323 288.324371,213.848679 
z"/>
<path fill="#2380C2" opacity="1.000000" stroke="none" 
	d="
M233.022446,204.129761 
	C228.059525,208.486816 225.459244,213.775925 224.493805,220.590454 
	C221.650497,220.997665 219.314697,220.999130 216.978912,221.000595 
	C216.770065,220.369247 216.506821,219.750229 216.360474,219.104721 
	C213.859344,208.072800 205.010422,203.676407 194.437347,208.261002 
	C192.793762,208.973679 191.230515,209.871674 188.556183,211.229034 
	C187.952850,206.441864 187.413101,202.159134 186.922211,197.438904 
	C196.103378,198.087952 205.235596,199.175400 214.368057,200.260742 
	C219.255493,200.841583 224.156616,201.330124 229.022415,202.055786 
	C230.354507,202.254471 231.581253,203.159409 233.022446,204.129761 
z"/>
<path fill="#2D8CC7" opacity="1.000000" stroke="none" 
	d="
M268.318146,214.974701 
	C268.957672,221.998383 269.816681,228.827560 274.588104,234.636688 
	C270.319458,234.929947 266.371307,234.889923 262.423157,234.849899 
	C262.948700,233.115402 263.474243,231.380905 264.057739,229.455185 
	C259.729736,228.468704 256.973969,228.686523 254.815903,233.355682 
	C251.222794,241.129700 239.755585,240.745468 235.176804,233.048935 
	C234.107849,231.252136 233.572922,229.137650 232.531525,226.511856 
	C242.925568,225.167404 252.716965,223.900909 263.220184,222.542343 
	C262.850189,220.167755 262.508850,217.977234 262.172424,215.381775 
	C264.088043,214.978226 265.998779,214.979645 268.318146,214.974701 
z"/>
<path fill="#F7FAFD" opacity="1.000000" stroke="none" 
	d="
M364.059875,188.488846 
	C366.522919,187.554352 369.009033,187.011261 371.806854,186.400085 
	C371.375214,188.999573 371.060822,190.893021 370.503632,193.484344 
	C368.542999,201.786453 366.825165,209.390686 364.950470,217.352066 
	C363.772919,222.302689 362.752197,226.896179 361.495178,231.804291 
	C359.648224,236.362747 358.037537,240.606583 356.142334,245.027390 
	C353.941864,246.122269 352.108582,247.464844 350.090424,247.857559 
	C347.139618,248.431747 343.864777,248.624146 343.940186,243.598663 
	C344.843109,242.566971 345.693176,241.428604 346.595917,241.385208 
	C351.404846,241.154053 353.847595,238.788849 354.170074,233.688171 
	C355.237732,227.916550 351.280579,224.289032 349.174866,219.576233 
	C344.576569,210.660980 340.061127,202.097687 335.091125,192.672302 
	C334.028809,195.605438 333.436829,197.239914 332.867371,198.812225 
	C325.040741,197.530273 321.875916,199.772461 321.447601,207.337753 
	C321.245026,210.915329 322.096344,214.552597 322.481079,218.600525 
	C323.054016,223.356201 323.616028,227.674164 324.096313,232.375519 
	C321.940277,233.670807 319.866028,234.582672 317.661560,235.551804 
	C316.925903,231.830139 316.448334,229.414093 316.014404,226.575409 
	C315.362122,221.101334 314.666229,216.049927 314.013977,210.575119 
	C313.448547,205.770264 312.839478,201.388794 312.230408,197.007339 
	C311.798798,192.452545 315.497559,194.108475 317.907990,193.039642 
	C318.477936,194.701080 318.962189,196.112717 319.102844,196.522705 
	C322.098236,194.720322 325.175903,192.868423 328.628235,190.934723 
	C331.708954,190.868546 334.417419,190.820206 337.120209,190.922150 
	C338.947540,190.991089 340.766846,191.271622 342.881958,192.075989 
	C345.501526,197.125687 347.828857,201.556900 350.197266,206.334091 
	C352.569946,211.313721 354.901581,215.947372 357.607483,221.324844 
	C358.613678,215.901108 359.430054,211.500458 360.467163,206.790466 
	C361.533264,202.348404 362.378601,198.215683 363.223969,194.082947 
	C363.510315,192.348709 363.796661,190.614487 364.059875,188.488846 
z"/>
<path fill="#1D78BE" opacity="1.000000" stroke="none" 
	d="
M311.768188,197.005219 
	C312.839478,201.388794 313.448547,205.770264 313.582550,210.575745 
	C310.820770,210.995270 308.534027,210.990753 306.247314,210.986237 
	C303.995239,205.420807 301.442078,200.100586 295.164307,197.382996 
	C297.962372,196.806595 300.970428,196.282166 303.986298,196.232452 
	C306.421295,196.192322 308.865753,196.724716 311.768188,197.005219 
z"/>
<path fill="#2E94C9" opacity="1.000000" stroke="none" 
	d="
M230.108566,238.778473 
	C236.873383,245.218201 244.670090,246.220901 253.698364,243.502563 
	C255.935226,244.554184 257.660370,245.713043 259.492950,245.919769 
	C278.370514,248.049362 297.276001,249.931610 316.152618,252.069290 
	C335.678314,254.280487 355.191437,256.612946 374.685547,259.085480 
	C379.518555,259.698517 384.256866,261.057831 389.038727,262.074097 
	C389.021332,263.760376 389.003937,265.446655 389.035309,267.551697 
	C377.601593,266.771667 366.114471,265.615234 354.638519,264.356995 
	C348.575165,263.692200 342.535339,262.815704 336.477448,262.097778 
	C330.251495,261.359924 324.016815,260.695374 317.785309,260.004822 
	C308.769531,259.005676 299.749176,258.046539 290.738037,257.007385 
	C279.432190,255.703613 268.133484,254.337814 256.832062,252.995819 
	C245.530518,251.653793 234.227661,250.322678 222.931381,248.937714 
	C221.970749,248.819931 221.055466,248.332062 219.700439,247.811798 
	C219.293991,245.750320 219.306198,243.893143 219.715637,241.495300 
	C223.444748,240.229233 226.776657,239.503845 230.108566,238.778473 
z"/>
<path fill="#2F94C9" opacity="1.000000" stroke="none" 
	d="
M211.048401,236.001221 
	C211.661987,239.730728 212.275574,243.460251 212.982010,247.581772 
	C206.708023,247.315689 200.341187,246.657593 193.519775,245.999084 
	C192.520981,242.295044 191.976761,238.591431 191.900513,234.448425 
	C198.595108,234.673080 204.821762,235.337158 211.048401,236.001221 
z"/>
<path fill="#0551B0" opacity="1.000000" stroke="none" 
	d="
M201.854294,120.610596 
	C234.679733,108.300903 267.631378,108.469238 300.259277,120.799347 
	C310.532745,124.681709 319.936096,130.866714 329.779114,136.571793 
	C327.587891,137.278549 325.316193,137.743286 323.129486,137.485886 
	C314.294922,136.445999 305.503632,135.031677 296.664581,134.038651 
	C283.227814,132.529129 269.751312,131.372040 256.316040,129.850494 
	C240.109055,128.015060 223.914841,126.049133 207.750534,123.876236 
	C205.676270,123.597412 203.814499,121.737869 201.854294,120.610596 
z"/>
<path fill="#2B8FC7" opacity="1.000000" stroke="none" 
	d="
M389.385193,261.821716 
	C384.256866,261.057831 379.518555,259.698517 374.685547,259.085480 
	C355.191437,256.612946 335.678314,254.280487 316.152618,252.069290 
	C297.276001,249.931610 278.370514,248.049362 259.492950,245.919769 
	C257.660370,245.713043 255.935226,244.554184 254.083618,243.473907 
	C256.679016,240.515930 259.351013,237.921356 262.223083,235.088333 
	C266.371307,234.889923 270.319458,234.929947 274.750244,234.947144 
	C282.421509,240.414993 290.209534,240.139816 298.730988,237.613556 
	C303.801941,238.773346 308.375305,239.864166 313.012329,240.456329 
	C323.295135,241.769440 333.609894,242.832336 343.911621,243.997253 
	C343.864777,248.624146 347.139618,248.431747 350.090424,247.857559 
	C352.108582,247.464844 353.941864,246.122269 356.607178,245.066605 
	C368.224762,246.285141 379.092987,247.641434 389.961182,248.997742 
	C389.884674,253.188278 389.808197,257.378815 389.385193,261.821716 
z"/>
<path fill="#0856B2" opacity="1.000000" stroke="none" 
	d="
M201.488724,120.706299 
	C203.814499,121.737869 205.676270,123.597412 207.750534,123.876236 
	C223.914841,126.049133 240.109055,128.015060 256.316040,129.850494 
	C269.751312,131.372040 283.227814,132.529129 296.664581,134.038651 
	C305.503632,135.031677 314.294922,136.445999 323.129486,137.485886 
	C325.316193,137.743286 327.587891,137.278549 330.060150,136.773834 
	C335.207825,140.359116 340.115875,144.316330 345.196533,148.575241 
	C334.038025,147.796341 322.696899,146.809311 311.378662,145.607391 
	C301.212341,144.527817 291.071777,143.205902 280.918518,142.002441 
	C271.416626,140.876205 261.911011,139.780899 252.410522,138.643112 
	C242.423050,137.447006 232.432358,136.273209 222.456314,134.987137 
	C209.698410,133.342377 196.953705,131.595047 183.740219,129.790359 
	C189.225800,126.726532 195.174484,123.764267 201.488724,120.706299 
z"/>
<path fill="#2380C2" opacity="1.000000" stroke="none" 
	d="
M361.731476,231.489670 
	C362.752197,226.896179 363.772919,222.302689 365.363342,217.364899 
	C372.750458,217.640961 379.567871,218.261322 386.385284,218.881683 
	C387.343414,224.297424 388.301575,229.713150 388.772827,235.566193 
	C383.401917,235.645096 378.464935,235.612000 373.650269,234.828033 
	C369.603424,234.169113 365.698975,232.635864 361.731476,231.489670 
z"/>
<path fill="#2889C5" opacity="1.000000" stroke="none" 
	d="
M361.495178,231.804291 
	C365.698975,232.635864 369.603424,234.169113 373.650269,234.828033 
	C378.464935,235.612000 383.401917,235.645096 388.741821,236.005692 
	C389.502228,240.036667 389.806732,244.065491 390.036194,248.546021 
	C379.092987,247.641434 368.224762,246.285141 356.891693,244.889633 
	C358.037537,240.606583 359.648224,236.362747 361.495178,231.804291 
z"/>
<path fill="#1D78BE" opacity="1.000000" stroke="none" 
	d="
M386.330627,218.481659 
	C379.567871,218.261322 372.750458,217.640961 365.520203,217.007767 
	C366.825165,209.390686 368.542999,201.786453 370.497498,193.861542 
	C372.980957,194.014709 375.227753,194.488571 377.943268,194.939270 
	C381.033295,202.637939 383.654633,210.359787 386.330627,218.481659 
z"/>
<path fill="#1971BC" opacity="1.000000" stroke="none" 
	d="
M350.156219,205.988129 
	C347.828857,201.556900 345.501526,197.125687 343.138733,192.345947 
	C349.519989,192.671432 355.936707,193.345444 362.788696,194.051208 
	C362.378601,198.215683 361.533264,202.348404 360.048096,206.723297 
	C356.324280,206.639664 353.240265,206.313889 350.156219,205.988129 
z"/>
<path fill="#45B8D7" opacity="1.000000" stroke="none" 
	d="
M279.529419,303.893188 
	C283.117676,304.423828 286.462463,305.204742 290.221436,305.978363 
	C291.408203,312.038605 292.180786,318.106171 292.917480,324.584717 
	C280.783142,323.665741 268.684631,322.335754 256.131134,321.007355 
	C255.237579,318.467468 254.799042,315.925964 254.343887,313.288177 
	C268.546173,316.357452 274.113831,314.278473 279.529419,303.893188 
z"/>
<path fill="#2889C5" opacity="1.000000" stroke="none" 
	d="
M180.609894,212.000793 
	C181.808197,217.689682 182.586304,223.378326 182.884689,229.519318 
	C176.332077,229.383926 170.257843,228.809494 164.186554,228.205490 
	C153.508514,227.143188 142.832275,226.062775 132.155273,224.989944 
	C131.638458,211.779800 139.276062,203.552490 151.560165,203.968018 
	C158.246979,204.194183 161.862000,208.575439 165.114792,214.015106 
	C167.337357,213.167282 169.464401,212.355881 171.805939,211.271881 
	C174.743530,211.333023 177.466614,211.666779 180.609894,212.000793 
z"/>
<path fill="#40ADD3" opacity="1.000000" stroke="none" 
	d="
M219.607208,296.025696 
	C214.305099,296.685486 209.408722,297.318176 203.502228,298.081421 
	C205.485779,288.677094 207.350159,279.837860 209.311874,270.537018 
	C213.252197,278.136780 217.035004,285.272888 220.597961,292.517151 
	C221.019562,293.374359 220.237198,294.823700 219.607208,296.025696 
z"/>
<path fill="#41B2D4" opacity="1.000000" stroke="none" 
	d="
M246.826157,310.583252 
	C244.794052,310.997162 242.790161,311.003540 240.352905,311.016846 
	C236.367584,304.904999 232.815643,298.786194 229.200195,292.329285 
	C233.934891,292.315704 238.733139,292.640320 244.006744,292.949493 
	C245.272858,298.681274 246.063614,304.428497 246.826157,310.583252 
z"/>
<path fill="#2F94C9" opacity="1.000000" stroke="none" 
	d="
M132.090256,225.408020 
	C142.832275,226.062775 153.508514,227.143188 164.186554,228.205490 
	C170.257843,228.809494 176.332077,229.383926 182.878265,229.954346 
	C183.938339,234.336136 184.525101,238.735229 185.070923,243.567352 
	C181.500565,243.976379 177.971161,243.952408 173.940338,243.886093 
	C174.364639,240.889313 175.290344,237.934860 176.405869,234.374588 
	C173.365479,234.122086 171.110367,233.934799 168.636948,233.729370 
	C168.096619,235.475311 167.614990,237.015686 167.143127,238.559052 
	C165.136261,245.123047 160.606216,248.900391 153.942917,249.865219 
	C147.004593,250.869888 140.488251,249.171600 137.195663,242.716339 
	C134.561020,237.551010 133.682938,231.489731 132.090256,225.408020 
z"/>
<path fill="#3BA9D1" opacity="1.000000" stroke="none" 
	d="
M296.439911,295.237549 
	C296.186707,289.799164 295.470734,284.635040 296.186523,279.677673 
	C296.816528,275.314148 300.172180,272.432922 304.913971,272.030853 
	C309.705841,271.624573 312.873138,274.250854 314.885254,278.195557 
	C317.792542,283.895081 318.345123,290.044281 316.647919,296.161224 
	C315.383728,300.717377 312.039917,303.608154 307.207184,303.818970 
	C301.557373,304.065399 298.443604,300.531219 296.439911,295.237549 
z"/>
<path fill="#40ADD3" opacity="1.000000" stroke="none" 
	d="
M272.376587,303.056702 
	C270.007843,307.837402 266.379059,309.621552 261.562164,309.110138 
	C257.000763,308.625885 254.002975,305.668488 253.182434,301.630920 
	C252.151093,296.556091 251.686966,291.177368 252.166260,286.040619 
	C252.591125,281.487488 255.742935,278.244141 260.780396,277.704590 
	C266.020264,277.143311 269.413177,279.799988 271.418549,284.278931 
	C274.082397,290.228607 274.879578,296.399567 272.376587,303.056702 
z"/>
<path fill="#2D8CC7" opacity="1.000000" stroke="none" 
	d="
M211.086029,235.566208 
	C204.821762,235.337158 198.595108,234.673080 191.904556,233.998627 
	C191.006042,230.888641 190.362350,227.801147 190.182251,224.686844 
	C189.851212,218.962234 193.089218,214.663681 198.434006,213.291214 
	C203.570633,211.972214 207.911102,214.245743 208.991058,219.455170 
	C210.058945,224.606491 210.440842,229.900040 211.086029,235.566208 
z"/>
<path fill="#2D8CC7" opacity="1.000000" stroke="none" 
	d="
M229.981110,238.454514 
	C226.776657,239.503845 223.444748,240.229233 219.720688,241.080444 
	C218.512497,234.763641 217.696457,228.321030 216.929672,221.439499 
	C219.314697,220.999130 221.650497,220.997665 224.421265,220.991943 
	C226.522049,226.701965 228.187851,232.416260 229.981110,238.454514 
z"/>
<path fill="#2889C5" opacity="1.000000" stroke="none" 
	d="
M235.742706,210.740234 
	C244.592804,204.219406 253.593369,207.559250 254.755966,217.765564 
	C247.445221,218.631683 240.137268,219.497482 231.309769,220.543304 
	C233.067230,216.532257 234.275406,213.774887 235.742706,210.740234 
z"/>
<path fill="#2889C5" opacity="1.000000" stroke="none" 
	d="
M343.940186,243.598663 
	C333.609894,242.832336 323.295135,241.769440 313.012329,240.456329 
	C308.375305,239.864166 303.801941,238.773346 299.105743,237.542404 
	C301.634430,233.989365 304.257111,230.802689 307.480347,227.305435 
	C310.710876,226.995926 313.340820,226.996994 315.970764,226.998047 
	C316.448334,229.414093 316.925903,231.830139 317.661560,235.551804 
	C319.866028,234.582672 321.940277,233.670807 324.550049,232.377914 
	C334.718018,232.663986 344.350555,233.331055 353.983063,233.998138 
	C353.847595,238.788849 351.404846,241.154053 346.595917,241.385208 
	C345.693176,241.428604 344.843109,242.566971 343.940186,243.598663 
z"/>
<path fill="#2380C2" opacity="1.000000" stroke="none" 
	d="
M316.014404,226.575409 
	C313.340820,226.996994 310.710876,226.995926 307.646484,226.993347 
	C306.969971,220.866928 302.822479,224.765533 299.664917,224.660614 
	C297.302460,224.996185 295.549377,225.340897 293.996918,224.929153 
	C289.618896,223.767975 285.323242,222.296112 280.995117,220.946716 
	C289.563293,219.717270 298.131470,218.487823 307.133850,217.196075 
	C306.825775,215.243118 306.551300,213.503143 306.262085,211.374695 
	C308.534027,210.990753 310.820770,210.995270 313.538910,210.999146 
	C314.666229,216.049927 315.362122,221.101334 316.014404,226.575409 
z"/>
<path fill="#2380C2" opacity="1.000000" stroke="none" 
	d="
M287.880432,213.888031 
	C283.844025,214.315323 280.251526,214.703278 276.645203,215.092712 
	C276.193390,208.076874 279.810150,203.161224 285.818207,202.151947 
	C291.958801,201.120407 296.727081,204.626617 298.926422,212.285706 
	C295.347260,212.813354 291.835815,213.331009 287.880432,213.888031 
z"/>
<path fill="#2889C5" opacity="1.000000" stroke="none" 
	d="
M280.581726,220.898270 
	C285.323242,222.296112 289.618896,223.767975 293.996918,224.929153 
	C295.549377,225.340897 297.302460,224.996185 299.405914,224.994461 
	C297.917480,230.976089 294.243622,233.857346 288.758362,233.689209 
	C283.486267,233.527603 278.684143,229.470261 277.181244,224.217499 
	C276.328217,221.235962 277.789795,220.742645 280.581726,220.898270 
z"/>
<path fill="#227CC0" opacity="1.000000" stroke="none" 
	d="
M322.470184,218.162811 
	C322.096344,214.552597 321.245026,210.915329 321.447601,207.337753 
	C321.875916,199.772461 325.040741,197.530273 332.867371,198.812225 
	C333.436829,197.239914 334.028809,195.605438 335.091125,192.672302 
	C340.061127,202.097687 344.576569,210.660980 348.690765,219.597458 
	C339.683075,219.368027 331.076630,218.765427 322.470184,218.162811 
z"/>
<path fill="#2380C2" opacity="1.000000" stroke="none" 
	d="
M322.481079,218.600525 
	C331.076630,218.765427 339.683075,219.368027 348.773621,219.949402 
	C351.280579,224.289032 355.237732,227.916550 354.170074,233.688171 
	C344.350555,233.331055 334.718018,232.663986 324.631775,231.994507 
	C323.616028,227.674164 323.054016,223.356201 322.481079,218.600525 
z"/>
<path fill="#227CC0" opacity="1.000000" stroke="none" 
	d="
M350.197266,206.334106 
	C353.240265,206.313889 356.324280,206.639664 359.827393,207.032623 
	C359.430054,211.500458 358.613678,215.901108 357.607483,221.324844 
	C354.901581,215.947372 352.569946,211.313721 350.197266,206.334106 
z"/>
</svg>